<svg xmlns="http://www.w3.org/2000/svg" version="1.1" xmlns:xlink="http://www.w3.org/1999/xlink" xmlns:svgjs="http://svgjs.com/svgjs" width="1440" height="562" preserveAspectRatio="none" viewBox="0 0 1440 562"><g mask="url(&quot;#SvgjsMask1017&quot;)" fill="none"><path d="M243.99 64.76L308.94 102.26L308.94 177.26L243.99 214.76L179.04 177.26L179.04 102.26zM179.04 402.26L243.99 439.76L243.99 514.76L179.04 552.26L114.08 514.76L114.08 439.76zM308.94 -47.74L373.9 -10.24L373.9 64.76L308.94 102.26L243.99 64.76L243.99 -10.24zM1283.25 64.76L1348.2 102.26L1348.2 177.26L1283.25 214.76L1218.3 177.26L1218.3 102.26zM1283.25 289.76L1348.2 327.26L1348.2 402.26L1283.25 439.76L1218.3 402.26L1218.3 327.26zM1218.3 402.26L1283.25 439.76L1283.25 514.76L1218.3 552.26L1153.34 514.76L1153.34 439.76zM1413.16 64.76L1478.11 102.26L1478.11 177.26L1413.16 214.76L1348.21 177.26L1348.21 102.26zM1413.16 514.76L1478.11 552.26L1478.11 627.26L1413.16 664.76L1348.21 627.26L1348.21 552.26zM1478.11 177.26L1543.07 214.76L1543.07 289.76L1478.11 327.26L1413.16 289.76L1413.16 214.76z" stroke="#03305d" stroke-width="2"></path><path d="M236.49 64.76 a7.5 7.5 0 1 0 15 0 a7.5 7.5 0 1 0 -15 0zM301.44 102.26 a7.5 7.5 0 1 0 15 0 a7.5 7.5 0 1 0 -15 0zM301.44 177.26 a7.5 7.5 0 1 0 15 0 a7.5 7.5 0 1 0 -15 0zM236.49 214.76 a7.5 7.5 0 1 0 15 0 a7.5 7.5 0 1 0 -15 0zM171.54 177.26 a7.5 7.5 0 1 0 15 0 a7.5 7.5 0 1 0 -15 0zM171.54 102.26 a7.5 7.5 0 1 0 15 0 a7.5 7.5 0 1 0 -15 0zM171.54 402.26 a7.5 7.5 0 1 0 15 0 a7.5 7.5 0 1 0 -15 0zM236.49 439.76 a7.5 7.5 0 1 0 15 0 a7.5 7.5 0 1 0 -15 0zM236.49 514.76 a7.5 7.5 0 1 0 15 0 a7.5 7.5 0 1 0 -15 0zM171.54 552.26 a7.5 7.5 0 1 0 15 0 a7.5 7.5 0 1 0 -15 0zM106.58 514.76 a7.5 7.5 0 1 0 15 0 a7.5 7.5 0 1 0 -15 0zM106.58 439.76 a7.5 7.5 0 1 0 15 0 a7.5 7.5 0 1 0 -15 0zM301.44 -47.74 a7.5 7.5 0 1 0 15 0 a7.5 7.5 0 1 0 -15 0zM366.4 -10.24 a7.5 7.5 0 1 0 15 0 a7.5 7.5 0 1 0 -15 0zM366.4 64.76 a7.5 7.5 0 1 0 15 0 a7.5 7.5 0 1 0 -15 0zM236.49 -10.24 a7.5 7.5 0 1 0 15 0 a7.5 7.5 0 1 0 -15 0zM1275.75 64.76 a7.5 7.5 0 1 0 15 0 a7.5 7.5 0 1 0 -15 0zM1340.7 102.26 a7.5 7.5 0 1 0 15 0 a7.5 7.5 0 1 0 -15 0zM1340.7 177.26 a7.5 7.5 0 1 0 15 0 a7.5 7.5 0 1 0 -15 0zM1275.75 214.76 a7.5 7.5 0 1 0 15 0 a7.5 7.5 0 1 0 -15 0zM1210.8 177.26 a7.5 7.5 0 1 0 15 0 a7.5 7.5 0 1 0 -15 0zM1210.8 102.26 a7.5 7.5 0 1 0 15 0 a7.5 7.5 0 1 0 -15 0zM1275.75 289.76 a7.5 7.5 0 1 0 15 0 a7.5 7.5 0 1 0 -15 0zM1340.7 327.26 a7.5 7.5 0 1 0 15 0 a7.5 7.5 0 1 0 -15 0zM1340.7 402.26 a7.5 7.5 0 1 0 15 0 a7.5 7.5 0 1 0 -15 0zM1275.75 439.76 a7.5 7.5 0 1 0 15 0 a7.5 7.5 0 1 0 -15 0zM1210.8 402.26 a7.5 7.5 0 1 0 15 0 a7.5 7.5 0 1 0 -15 0zM1210.8 327.26 a7.5 7.5 0 1 0 15 0 a7.5 7.5 0 1 0 -15 0zM1275.75 514.76 a7.5 7.5 0 1 0 15 0 a7.5 7.5 0 1 0 -15 0zM1210.8 552.26 a7.5 7.5 0 1 0 15 0 a7.5 7.5 0 1 0 -15 0zM1145.84 514.76 a7.5 7.5 0 1 0 15 0 a7.5 7.5 0 1 0 -15 0zM1145.84 439.76 a7.5 7.5 0 1 0 15 0 a7.5 7.5 0 1 0 -15 0zM1405.66 64.76 a7.5 7.5 0 1 0 15 0 a7.5 7.5 0 1 0 -15 0zM1470.61 102.26 a7.5 7.5 0 1 0 15 0 a7.5 7.5 0 1 0 -15 0zM1470.61 177.26 a7.5 7.5 0 1 0 15 0 a7.5 7.5 0 1 0 -15 0zM1405.66 214.76 a7.5 7.5 0 1 0 15 0 a7.5 7.5 0 1 0 -15 0zM1340.71 177.26 a7.5 7.5 0 1 0 15 0 a7.5 7.5 0 1 0 -15 0zM1340.71 102.26 a7.5 7.5 0 1 0 15 0 a7.5 7.5 0 1 0 -15 0zM1405.66 514.76 a7.5 7.5 0 1 0 15 0 a7.5 7.5 0 1 0 -15 0zM1470.61 552.26 a7.5 7.5 0 1 0 15 0 a7.5 7.5 0 1 0 -15 0zM1470.61 627.26 a7.5 7.5 0 1 0 15 0 a7.5 7.5 0 1 0 -15 0zM1405.66 664.76 a7.5 7.5 0 1 0 15 0 a7.5 7.5 0 1 0 -15 0zM1340.71 627.26 a7.5 7.5 0 1 0 15 0 a7.5 7.5 0 1 0 -15 0zM1340.71 552.26 a7.5 7.5 0 1 0 15 0 a7.5 7.5 0 1 0 -15 0zM1535.57 214.76 a7.5 7.5 0 1 0 15 0 a7.5 7.5 0 1 0 -15 0zM1535.57 289.76 a7.5 7.5 0 1 0 15 0 a7.5 7.5 0 1 0 -15 0zM1470.61 327.26 a7.5 7.5 0 1 0 15 0 a7.5 7.5 0 1 0 -15 0zM1405.66 289.76 a7.5 7.5 0 1 0 15 0 a7.5 7.5 0 1 0 -15 0z" fill="#03305d"></path><path d="M32.95 113.92L76.25 138.92L76.25 188.92L32.95 213.92L-10.35 188.92L-10.35 138.92zM32.95 413.92L76.25 438.92L76.25 488.92L32.95 513.92L-10.35 488.92L-10.35 438.92zM119.56 113.92L162.86 138.92L162.86 188.92L119.56 213.92L76.25 188.92L76.25 138.92zM162.86 188.92L206.16 213.92L206.16 263.92L162.86 288.92L119.56 263.92L119.56 213.92zM119.56 263.92L162.86 288.92L162.86 338.92L119.56 363.92L76.25 338.92L76.25 288.92zM206.16 113.92L249.46 138.92L249.46 188.92L206.16 213.92L162.86 188.92L162.86 138.92zM249.46 188.92L292.76 213.92L292.76 263.92L249.46 288.92L206.16 263.92L206.16 213.92zM206.16 413.92L249.46 438.92L249.46 488.92L206.16 513.92L162.86 488.92L162.86 438.92zM336.07 38.92L379.37 63.92L379.37 113.92L336.07 138.92L292.76 113.92L292.76 63.92zM292.76 263.92L336.07 288.92L336.07 338.92L292.76 363.92L249.46 338.92L249.46 288.92zM292.76 413.92L336.07 438.92L336.07 488.92L292.76 513.92L249.46 488.92L249.46 438.92zM379.37 -36.08L422.67 -11.08L422.67 38.92L379.37 63.92L336.07 38.92L336.07 -11.08zM379.37 113.92L422.67 138.92L422.67 188.92L379.37 213.92L336.07 188.92L336.07 138.92zM379.37 263.92L422.67 288.92L422.67 338.92L379.37 363.92L336.07 338.92L336.07 288.92zM465.98 113.92L509.28 138.92L509.28 188.92L465.98 213.92L422.67 188.92L422.67 138.92zM465.98 263.92L509.28 288.92L509.28 338.92L465.98 363.92L422.67 338.92L422.67 288.92zM552.58 113.92L595.88 138.92L595.88 188.92L552.58 213.92L509.28 188.92L509.28 138.92zM595.88 338.92L639.19 363.92L639.19 413.92L595.88 438.92L552.58 413.92L552.58 363.92zM682.49 38.92L725.79 63.92L725.79 113.92L682.49 138.92L639.19 113.92L639.19 63.92zM639.19 263.92L682.49 288.92L682.49 338.92L639.19 363.92L595.88 338.92L595.88 288.92zM725.79 263.92L769.09 288.92L769.09 338.92L725.79 363.92L682.49 338.92L682.49 288.92zM812.4 -36.08L855.7 -11.08L855.7 38.92L812.4 63.92L769.09 38.92L769.09 -11.08zM855.7 488.92L899 513.92L899 563.92L855.7 588.92L812.4 563.92L812.4 513.92zM942.3 38.92L985.61 63.92L985.61 113.92L942.3 138.92L899 113.92L899 63.92zM942.3 338.92L985.61 363.92L985.61 413.92L942.3 438.92L899 413.92L899 363.92zM985.61 113.92L1028.91 138.92L1028.91 188.92L985.61 213.92L942.3 188.92L942.3 138.92zM985.61 413.92L1028.91 438.92L1028.91 488.92L985.61 513.92L942.3 488.92L942.3 438.92zM1028.91 488.92L1072.21 513.92L1072.21 563.92L1028.91 588.92L985.61 563.92L985.61 513.92zM1115.51 38.92L1158.82 63.92L1158.82 113.92L1115.51 138.92L1072.21 113.92L1072.21 63.92zM1158.82 -36.08L1202.12 -11.08L1202.12 38.92L1158.82 63.92L1115.51 38.92L1115.51 -11.08zM1202.12 38.92L1245.42 63.92L1245.42 113.92L1202.12 138.92L1158.82 113.92L1158.82 63.92zM1202.12 338.92L1245.42 363.92L1245.42 413.92L1202.12 438.92L1158.82 413.92L1158.82 363.92zM1202.12 488.92L1245.42 513.92L1245.42 563.92L1202.12 588.92L1158.82 563.92L1158.82 513.92zM1245.42 113.92L1288.72 138.92L1288.72 188.92L1245.42 213.92L1202.12 188.92L1202.12 138.92zM1245.42 263.92L1288.72 288.92L1288.72 338.92L1245.42 363.92L1202.12 338.92L1202.12 288.92zM1375.33 188.92L1418.63 213.92L1418.63 263.92L1375.33 288.92L1332.03 263.92L1332.03 213.92zM1332.03 263.92L1375.33 288.92L1375.33 338.92L1332.03 363.92L1288.72 338.92L1288.72 288.92zM1375.33 338.92L1418.63 363.92L1418.63 413.92L1375.33 438.92L1332.03 413.92L1332.03 363.92zM1332.03 413.92L1375.33 438.92L1375.33 488.92L1332.03 513.92L1288.72 488.92L1288.72 438.92zM1418.63 -36.08L1461.93 -11.08L1461.93 38.92L1418.63 63.92L1375.33 38.92L1375.33 -11.08zM1418.63 263.92L1461.93 288.92L1461.93 338.92L1418.63 363.92L1375.33 338.92L1375.33 288.92zM1418.63 413.92L1461.93 438.92L1461.93 488.92L1418.63 513.92L1375.33 488.92L1375.33 438.92z" stroke="rgba(6, 80, 156, 0.93)" stroke-width="2"></path></g><defs><mask id="SvgjsMask1017"><rect width="1440" height="562" fill="#ffffff"></rect></mask></defs></svg>